<?xml version="1.0" encoding="utf-8"?>
<!-- Generator: Adobe Illustrator 28.2.0, SVG Export Plug-In . SVG Version: 6.00 Build 0)  -->
<svg version="1.1" id="Layer_1" xmlns="http://www.w3.org/2000/svg" xmlns:xlink="http://www.w3.org/1999/xlink" x="0px" y="0px"
	 viewBox="0 0 357 70.4" style="enable-background:new 0 0 357 70.4;" xml:space="preserve">
<style type="text/css">
	.st0{display:none;}
	.st1{display:inline;}
	.st2{fill:#0C5174;}
	.st3{clip-path:url(#SVGID_00000170995233113227578350000005114600884259282565_);}
	.st4{fill:#FFFFFF;}
	.st5{clip-path:url(#SVGID_00000170256277316753345530000000261717787414279603_);}
	.st6{fill:$ngwcp_primary2;}
	.st7{display:inline;fill:$ngwcp_primary1;}
	.st8{clip-path:url(#SVGID_00000027567232630727615100000008838162873684679332_);}
	.st9{fill:$ngwcp_primary1;}
</style>
<g id="Layer_1_00000082369083162098458950000008736377413136307384_" class="st0">
	<g class="st1">
		<g transform="translate(12.883325, 160.041588)">
			<g>
				<path class="st2" d="M47.3-91v-67.8H32.9v43.9L1.5-158.8h-14.9V-91H1v-45.5L33.3-91C33.3-91,47.3-91,47.3-91z"/>
			</g>
		</g>
	</g>
	<g class="st1">
		<g transform="translate(66.920847, 160.041588)">
			<g>
				<path class="st2" d="M1.4-124.8c0,21.3,16.3,35.2,36.1,35.2c12.3,0,22-5.1,28.9-12.8v-25.9H34v12.4h18.1v8.2
					c-3,2.6-8.4,5.1-14.6,5.1c-12.3,0-21.2-9.4-21.2-22.3s8.9-22.2,21.2-22.2c7.1,0,12.9,3.8,16.1,8.5l12-6.5
					c-5.2-8-14-14.8-28.1-14.8C17.6-159.9,1.4-146.3,1.4-124.8z"/>
			</g>
		</g>
	</g>
	<g class="st1">
		<g transform="translate(120.272421, 160.041588)">
			<g>
				<path class="st2" d="M89.6-91l19.3-67.8H92.6l-11.8,49l-12.8-49H56.8l-12.9,49l-11.9-49H15.8L35.2-91h15.3l11.8-46.5L74.2-91
					C74.2-91,89.6-91,89.6-91z"/>
			</g>
		</g>
	</g>
	<g class="st1">
		<g transform="translate(188.714946, 160.041588)">
			<g>
				<path class="st2" d="M59.7-91v-24.3H77c14.6,0,22.8-9.9,22.8-21.6c0-11.9-8-21.9-22.8-21.9H45.2V-91C45.2-91,59.7-91,59.7-91z
					 M85-137c0,5.7-4.3,9.4-10,9.4H59.7v-18.7H75C80.7-146.4,85-142.6,85-137z"/>
			</g>
		</g>
	</g>
	<g class="st1">
		<g transform="translate(234.74969, 160.041588)">
			<g>
				<path class="st2" d="M92.9-89.8c15.4,0,24-8.2,28.9-16.7l-12.4-6c-2.8,5.6-8.9,9.9-16.5,9.9c-11.8,0-20.7-9.4-20.7-22.3
					s8.9-22.3,20.7-22.3c7.5,0,13.6,4.4,16.5,9.9l12.4-6.1c-4.8-8.4-13.4-16.6-28.9-16.6c-19.8,0-35.6,14.2-35.6,35.1
					S73.1-89.8,92.9-89.8z"/>
			</g>
		</g>
	</g>
</g>
<g id="Layer_2_00000054954813308815872070000014220659271971404459_">
	<g>
		<g>
			<g>
				<g transform="translate(12.883325, 160.041588)">
					<g>
						<path d="M47.7-91v-67.8H33.3v43.9L1.9-158.8h-14.8V-91H1.5v-45.5L33.8-91C33.8-91,47.7-91,47.7-91z"/>
					</g>
				</g>
			</g>
			<g>
				<g transform="translate(66.920847, 160.041588)">
					<g>
						<path d="M1.8-124.8c0,21.3,16.3,35.2,36.1,35.2c12.3,0,22-5.1,28.9-12.8v-25.9H34.4v12.4h18.1v8.2c-2.9,2.6-8.4,5.2-14.6,5.2
							c-12.3,0-21.2-9.4-21.2-22.3s8.9-22.3,21.2-22.3c7.1,0,12.9,3.8,16.1,8.5l12-6.5c-5.2-8-14-14.8-28.1-14.8
							C18.1-159.9,1.8-146.3,1.8-124.8z"/>
					</g>
				</g>
			</g>
			<g>
				<g transform="translate(120.272421, 160.041588)">
					<g>
						<path d="M90-91l19.3-67.8H93l-11.8,49l-12.7-49H57.2l-12.9,49l-11.9-49H16.3L35.7-91H51l11.8-46.5L74.7-91
							C74.7-91,90-91,90-91z"/>
					</g>
				</g>
			</g>
			<g>
				<g transform="translate(188.714946, 160.041588)">
					<g>
						<path d="M60.1-91v-24.3h17.3c14.6,0,22.8-9.9,22.8-21.6c0-11.9-8-21.9-22.8-21.9H45.7V-91C45.7-91,60.1-91,60.1-91z M85.4-137
							c0,5.7-4.3,9.4-10,9.4H60.1v-18.7h15.4C81.1-146.4,85.4-142.6,85.4-137z"/>
					</g>
				</g>
			</g>
			<g>
				<g transform="translate(234.74969, 160.041588)">
					<g>
						<path d="M93.3-89.8c15.4,0,24-8.2,28.9-16.7l-12.4-6c-2.8,5.6-8.9,9.9-16.5,9.9c-11.8,0-20.7-9.4-20.7-22.3
							s8.9-22.3,20.7-22.3c7.5,0,13.6,4.4,16.5,9.9l12.4-6.1c-4.8-8.4-13.4-16.6-28.9-16.6c-19.8,0-35.6,14.2-35.6,35.1
							S73.5-89.8,93.3-89.8z"/>
					</g>
				</g>
			</g>
		</g>
	</g>
</g>
</svg>
